
<svg width="48" height="48" viewBox="0 0 48 48" fill="none" xmlns="http://www.w3.org/2000/svg">
<path d="M31 9C31 5.13401 27.866 2 24 2H9C5.13401 2 2 5.13401 2 9V39C2 42.866 5.13401 46 9 46H24C27.866 46 31 42.866 31 39V31H18.6084C14.7424 31 11.6084 27.866 11.6084 24C11.6084 20.134 14.7424 17 18.6084 17H31V9Z" fill="black"/>
<path fill-rule="evenodd" clip-rule="evenodd" d="M36.2302 32.2393L45.6218 24.7837C46.1261 24.3833 46.1261 23.6176 45.6218 23.2173L36.2302 15.7616C35.5748 15.2414 34.6084 15.7081 34.6084 16.5448V21.0005H17.6084C15.9515 21.0005 14.6084 22.3436 14.6084 24.0005C14.6084 25.6573 15.9515 27.0005 17.6084 27.0005H34.6084V31.4561C34.6084 32.2929 35.5748 32.7596 36.2302 32.2393Z" fill="black"/>
</svg>
