
<svg width="48" height="48" viewBox="0 0 48 48" fill="none" xmlns="http://www.w3.org/2000/svg">
<path fill-rule="evenodd" clip-rule="evenodd" d="M34.1818 14C34.1818 19.5228 29.7047 24 24.1818 24C18.659 24 14.1818 19.5228 14.1818 14C14.1818 8.47715 18.659 4 24.1818 4C29.7047 4 34.1818 8.47715 34.1818 14Z" fill="black"/>
<path fill-rule="evenodd" clip-rule="evenodd" d="M14.1818 25.8182H14.2227C16.9124 28.0871 20.3874 29.4545 24.1818 29.4545C27.9762 29.4545 31.4512 28.0871 34.1409 25.8182H34.1818C38.7005 25.8182 42.3636 29.4813 42.3636 34V40.3636C42.3636 42.3719 40.7356 44 38.7273 44H9.63636C7.62806 44 6 42.3719 6 40.3636V34C6 29.4813 9.66312 25.8182 14.1818 25.8182Z" fill="black"/>
</svg>
