<?xml version="1.0" encoding="UTF-8"?>
<!DOCTYPE svg PUBLIC "-//W3C//DTD SVG 1.1//EN" "http://www.w3.org/Graphics/SVG/1.1/DTD/svg11.dtd">
<!-- Creator: CorelDRAW X8 -->
<svg xmlns="http://www.w3.org/2000/svg" xml:space="preserve" width="538px" height="124px" version="1.1" style="shape-rendering:geometricPrecision; text-rendering:geometricPrecision; image-rendering:optimizeQuality; fill-rule:evenodd; clip-rule:evenodd"
viewBox="0 0 14252 3278"
 xmlns:xlink="http://www.w3.org/1999/xlink">
 <defs>
  <style type="text/css">
   <![CDATA[
    .fil0 {fill:#00A1D3}
    .fil2 {fill:#333333}
    .fil1 {fill:#3A3A3C}
    .fil3 {fill:#3A3A3D}
   ]]>
  </style>
 </defs>
 <g id="Layer_x0020_1">
  <metadata id="CorelCorpID_0Corel-Layer"/>
  <g id="_2571957996624">
   <path class="fil0" d="M0 2339l0 780c0,71 41,104 98,64l1133 -1106c69,-69 132,-132 201,-201l77 -73c129,-113 241,-247 388,-376 19,-16 32,-32 50,-50l668 -657c24,-20 31,-24 53,-47l411 -403c36,-35 65,-65 101,-100 38,-39 90,-70 90,-128 0,-33 -42,-42 -76,-42l-1592 0c-209,0 -291,196 -388,342l-588 895c-84,127 -545,812 -579,897 -21,52 -47,137 -47,205z"/>
   <path class="fil0" d="M201 3270c27,2 30,8 59,8l2934 0c31,0 47,-7 67,-17 22,-93 -28,-108 -153,-232l-1156 -1157c-111,-111 -104,-121 -323,92l-412 368c-23,18 -28,21 -49,43l-159 142c-21,20 -31,23 -51,42l-668 598c-48,37 -87,67 -89,113z"/>
   <path class="fil0" d="M0 84l0 1844c0,32 -2,3 9,25 30,-8 50,-60 81,-111l512 -863c26,-42 46,-78 72,-121 26,-45 50,-81 75,-126l365 -616c36,-60 86,-116 35,-116l-1065 0c-42,0 -84,42 -84,84z"/>
   <path class="fil1" d="M5450 1450l-311 0 0 -352 344 0c238,0 269,352 -33,352zm-579 -578c-21,92 -8,1133 -8,1316 0,63 128,42 226,42 23,0 23,-4 42,-8 19,-83 8,-443 8,-554 520,0 457,-34 597,494 25,93 70,68 258,68 58,0 15,-94 -3,-164 -21,-86 -76,-307 -114,-372 -53,-92 -99,-82 -126,-118 144,-76 202,-168 202,-344 0,-158 -126,-288 -266,-337 -51,-18 -105,-32 -170,-32 -91,0 -599,-9 -646,9z"/>
   <path class="fil1" d="M13087 922l0 738c0,82 9,166 31,229 66,186 246,341 455,341l436 0c59,0 135,-31 169,-57 44,-33 74,-87 74,-161l0 -1107c0,-64 -137,-42 -243,-42 -50,0 -42,75 -42,126l1 931c1,63 29,75 -185,75 -132,0 -269,7 -363,-98 -66,-75 -48,-179 -48,-313 0,-155 18,-600 -8,-712 -73,-17 -159,-9 -235,-9 -27,0 -42,31 -42,59z"/>
   <path class="fil1" d="M3471 922l0 1249c0,55 117,34 235,34 51,0 33,-108 33,-193 0,-196 -17,-146 82,-253 22,-24 29,-39 54,-64 44,-42 83,-97 116,-119 29,55 63,107 97,163 35,59 67,108 101,167 35,59 66,108 101,167 95,160 80,132 346,132 83,0 -58,-185 -93,-242l-304 -492c-24,-37 -41,-71 -64,-104l363 -401c24,-24 36,-27 40,-69 -53,-28 -264,-35 -337,24 -33,26 -45,49 -72,79l-71 80c-30,29 -43,51 -71,79l-288 317 0 -571c-59,-39 -91,-25 -209,-25 -29,0 -59,15 -59,42z"/>
   <path class="fil1" d="M7755 922l0 1249c0,55 117,34 235,34 51,0 33,-108 33,-193 0,-236 -10,-144 82,-254 34,-41 138,-160 170,-182 31,59 62,106 97,163l201 335c95,158 89,131 331,131 22,0 23,-4 41,-9 0,-62 1,-38 -45,-113 -94,-154 -373,-589 -441,-716l103 -116c74,-73 196,-223 260,-285 24,-23 36,-28 40,-69 -55,-29 -136,-17 -227,-17 -103,0 -180,111 -254,199l-70 80c-15,15 -25,23 -37,39l-177 200c-31,31 -36,52 -74,78l0 -571c-59,-39 -91,-25 -209,-25 -29,0 -59,15 -59,42z"/>
   <path class="fil1" d="M6892 1190c8,36 33,92 47,129l154 391 -403 0c9,-39 31,-90 47,-129l138 -357c1,-2 6,-15 7,-17l6 -11c1,-1 2,-4 4,-6zm-638 1040c289,0 218,30 313,-207 13,-32 23,-53 31,-86l579 0 93 242c30,74 97,51 259,51 61,0 -5,-121 -34,-193 -23,-57 -41,-110 -64,-170l-331 -860c-10,-25 -21,-58 -32,-85 -37,-86 -82,-59 -302,-59 -49,0 -76,115 -91,153l-439 1138c-9,24 -31,76 18,76z"/>
   <path class="fil1" d="M9809 1190l152 385c15,36 40,95 49,135l-402 0 201 -520zm-662 1015c0,44 95,25 218,25 68,0 82,-98 127,-208 9,-24 21,-62 32,-85l578 0c8,31 17,49 29,80 100,245 25,213 315,213 66,0 6,-103 -15,-161l-437 -1139c-37,-93 -58,-67 -294,-67 -65,0 -77,88 -97,138l-393 1024c-13,35 -63,149 -63,180z"/>
   <path class="fil1" d="M12232 1190l95 257c17,48 31,81 49,128 15,43 37,85 49,135l-394 0 191 -505c6,-11 4,-8 10,-15zm-671 1032c68,15 147,8 218,8 69,0 92,-114 127,-208 9,-25 26,-58 32,-85l579 0 92 243c32,73 97,50 252,50 16,0 33,-15 33,-25l-453 -1191c-11,-29 -22,-56 -32,-85 -33,-93 -84,-66 -295,-66 -59,0 -66,62 -95,139 -24,62 -45,114 -69,175l-362 945c-14,34 -27,53 -27,100z"/>
   <path class="fil1" d="M10438 914c0,74 -6,105 8,167 81,19 337,9 436,9l0 1106c0,53 146,34 235,34 19,0 42,-22 42,-42l0 -1098 402 0c52,0 34,-98 34,-201 0,-20 -6,-26 -25,-26l-1099 0c-25,0 -33,25 -33,51z"/>
   <path class="fil2" d="M7185 2549l0 436c0,32 21,25 75,25l0 -403 244 403 75 0c19,-83 8,-404 8,-512l-67 0 -7 401c-6,-9 -4,-6 -10,-15l-173 -288c-57,-95 -46,-98 -112,-98 -25,0 -33,25 -33,51z"/>
   <path class="fil2" d="M10010 2725l-142 0 0 -160c112,0 218,-23 218,84 0,42 -34,76 -76,76zm-218 -193l0 478 76 0 0 -218c172,0 182,-23 226,159 14,60 0,59 67,59 41,0 13,-36 -8,-118 -14,-51 -16,-103 -67,-117l0 -17c117,-31 95,-260 -67,-260 -115,0 -227,-20 -227,34z"/>
   <path class="fil2" d="M12852 2725l-142 0 0 -160c168,0 218,-18 218,101 0,30 -41,59 -76,59zm-218 -176l0 436c0,32 22,25 76,25l0 -218c191,0 186,-26 243,218l75 0c-18,-80 -42,-219 -100,-235l0 -17c116,-31 100,-260 -67,-260 -174,0 -227,-22 -227,51z"/>
   <path class="fil2" d="M5994 2725l-142 0 0 -160 142 0c43,0 76,37 76,76 0,46 -29,84 -76,84zm-217 -193l0 478 75 0 0 -218 117 0c125,0 80,218 143,218l50 0c0,-26 -34,-220 -92,-235l0 -17c111,-30 95,-260 -67,-260 -114,0 -226,-20 -226,34z"/>
   <path class="fil2" d="M10564 2775c0,-311 285,-253 285,-76 0,145 7,252 -160,252 -92,0 -125,-82 -125,-176zm-76 -42c0,181 45,285 235,285 188,0 201,-175 201,-302 0,-313 -436,-297 -436,17z"/>
   <path class="fil2" d="M5240 2582c11,13 9,10 16,26l68 226 -159 0c20,-89 55,-164 75,-252zm-210 428l76 0c9,-40 30,-77 33,-118l210 0c9,40 30,77 33,118l76 0c-1,-43 -66,-210 -85,-268 -12,-35 -71,-244 -108,-244 -70,0 -59,-4 -78,48 -25,67 -154,427 -157,464z"/>
   <path class="fil2" d="M11964 2616l0 276c0,155 161,118 343,118l0 -42c0,-73 -268,26 -268,-59l0 -142 243 0c0,-78 27,-59 -243,-59l0 -109c0,-92 268,30 268,-76 0,-19 -6,-25 -25,-25 -157,0 -318,-35 -318,118z"/>
   <path class="fil2" d="M9314 2741l-142 0 0 -176c173,0 218,-20 218,118 0,30 -41,58 -76,58zm-218 -192l0 436c0,32 22,25 76,25l0 -202c83,0 184,12 241,-35 95,-79 63,-275 -90,-275 -173,0 -227,-22 -227,51z"/>
   <path class="fil2" d="M11486 2741l-143 0 0 -176c136,0 218,-22 218,101 0,41 -34,75 -75,75zm-218 -209l0 478c96,0 75,29 75,-202 122,0 294,24 294,-167 0,-176 -212,-143 -336,-143 -19,0 -33,14 -33,34z"/>
   <path class="fil2" d="M8124 2582c4,44 62,194 75,252l-159 0c3,-34 25,-97 37,-131 17,-53 26,-105 47,-121zm-218 428l75 0c5,-50 30,-75 34,-118l210 0c3,41 24,78 33,118l75 0c-3,-45 -68,-210 -87,-265 -16,-49 -31,-88 -46,-130 -39,-119 -23,-117 -101,-117 -31,0 -44,62 -62,114 -17,48 -30,89 -46,131 -16,41 -84,233 -85,267z"/>
   <path class="fil2" d="M6648 2590l17 0c3,36 25,87 37,123 14,42 22,85 39,121l-168 0c16,-35 26,-78 39,-121 11,-39 33,-84 36,-123zm-209 420l75 0c16,-30 34,-81 42,-118l201 0c17,35 25,83 42,118l76 0 -134 -394c-42,-104 -20,-118 -101,-118 -37,0 -48,78 -62,114l-139 398z"/>
   <path class="fil2" d="M4393 2624c0,117 155,139 221,173 115,61 53,154 -20,154 -76,0 -123,0 -192,-34 -12,23 -23,36 -26,68 112,26 62,33 210,33 129,0 212,-115 138,-222 -54,-78 -255,-95 -255,-172 0,-116 189,-52 234,-42 7,-27 15,-37 17,-67 -67,-6 -31,-25 -184,-25 -78,0 -143,57 -143,134z"/>
   <polygon class="fil2" points="13305,2557 13456,2557 13456,3010 13531,3010 13531,2557 13691,2557 13691,2498 13305,2498 "/>
   <polygon class="fil2" points="14009,3010 14085,3010 14085,2498 14009,2498 "/>
   <polygon class="fil3" points="14118,2616 14135,2616 14135,2590 14118,2590 "/>
  </g>
 </g>
</svg>
