
<svg width="48" height="48" viewBox="0 0 48 48" fill="none" xmlns="http://www.w3.org/2000/svg">
<path fill-rule="evenodd" clip-rule="evenodd" d="M33.5433 3.04943C34.5675 3.46321 35.0623 4.62887 34.6485 5.65301L34.0639 7.09982C33.6986 8.00405 34.0466 9.03056 34.8254 9.61763C36.003 10.5054 37.0682 11.5345 37.9956 12.6797C38.6094 13.4376 39.6475 13.7496 40.5384 13.3529L41.9645 12.7179C42.9736 12.2687 44.1558 12.7225 44.6051 13.7315L45.4186 15.5586C45.8678 16.5677 45.414 17.7499 44.4049 18.1992L42.9814 18.833C42.0903 19.2297 41.6277 20.2102 41.7796 21.1737C41.9248 22.0945 42.0002 23.0385 42.0002 24C42.0002 24.7463 41.9548 25.4819 41.8666 26.2043C41.7484 27.1723 42.2451 28.1358 43.1493 28.5011L44.595 29.0852C45.6191 29.499 46.1139 30.6646 45.7001 31.6888L44.9509 33.5431C44.5371 34.5673 43.3715 35.0621 42.3473 34.6483L40.9005 34.0637C39.9962 33.6984 38.9697 34.0464 38.3827 34.8252C37.4949 36.0028 36.4658 37.068 35.3206 37.9954C34.5627 38.6092 34.2507 39.6473 34.6474 40.5382L35.2823 41.9643C35.7316 42.9734 35.2778 44.1556 34.2687 44.6049L32.4416 45.4183C31.4326 45.8676 30.2503 45.4138 29.8011 44.4047L29.1673 42.9812C28.7705 42.0901 27.7901 41.6275 26.8266 41.7794C25.9058 41.9246 24.9618 42 24.0002 42C23.254 42 22.5183 41.9546 21.7959 41.8664C20.8278 41.7482 19.8644 42.2448 19.4991 43.1491L18.915 44.5947C18.5012 45.6189 17.3356 46.1137 16.3114 45.6999L14.4571 44.9507C13.4329 44.5369 12.9381 43.3712 13.3519 42.3471L13.9365 40.9002C14.3018 39.996 13.9538 38.9695 13.1751 38.3824C11.9974 37.4946 10.9323 36.4656 10.0049 35.3204C9.39108 34.5625 8.35303 34.2505 7.46209 34.6472L6.03604 35.2821C5.02697 35.7314 3.84475 35.2776 3.39548 34.2685L2.582 32.4414C2.13273 31.4324 2.58655 30.2501 3.59562 29.8009L5.01907 29.1671C5.91017 28.7704 6.37282 27.7899 6.22086 26.8264C6.07564 25.9056 6.00024 24.9616 6.00024 24C6.00024 23.2538 6.04566 22.5181 6.13387 21.7957C6.25208 20.8276 5.75544 19.8642 4.8512 19.4989L3.40561 18.9148C2.38148 18.501 1.88668 17.3354 2.30046 16.3112L3.04967 14.4569C3.46345 13.4327 4.62911 12.9379 5.65325 13.3517L7.10009 13.9363C8.00432 14.3016 9.03083 13.9536 9.61789 13.1748C10.5057 11.9972 11.5347 10.9321 12.6799 10.0047C13.4377 9.39087 13.7497 8.35282 13.3531 7.46188L12.7181 6.03581C12.2689 5.02673 12.7227 3.84451 13.7318 3.39524L15.5588 2.58177C16.5679 2.1325 17.7501 2.58631 18.1994 3.59539L18.8332 5.01886C19.2299 5.90996 20.2104 6.37261 21.1739 6.22065C22.0947 6.07544 23.0387 6.00004 24.0002 6.00004C24.7465 6.00004 25.4821 6.04545 26.2045 6.13366C27.1726 6.25186 28.136 5.75521 28.5013 4.85099L29.0854 3.40537C29.4992 2.38123 30.6648 1.88644 31.689 2.30022L33.5433 3.04943ZM29.5002 24.0001C29.5002 27.0376 27.0378 29.5001 24.0002 29.5001C20.9627 29.5001 18.5002 27.0376 18.5002 24.0001C18.5002 20.9625 20.9627 18.5001 24.0002 18.5001C27.0378 18.5001 29.5002 20.9625 29.5002 24.0001ZM32.5002 24.0001C32.5002 28.6945 28.6947 32.5001 24.0002 32.5001C19.3058 32.5001 15.5002 28.6945 15.5002 24.0001C15.5002 19.3056 19.3058 15.5001 24.0002 15.5001C28.6947 15.5001 32.5002 19.3056 32.5002 24.0001Z" fill="black"/>
</svg>
